:SAMPLES-PER-SECOND 30
:FULLY-SPECIFIED
:DEGREES
565
root  -68.8712 40.9539 -2.45339 127.574 -87.3019 -130.084
RightUpLeg  0.169268 -3.73888 -1.27668
RightLeg  -4.64471 5.77672 -2.75824
RightFoot  5.49884 -0.749625 5.31474
RightToes  5.82063e-011 0 -3.6325e-017
Spine  21.191 -1.0213 1.41078
Spine1  9.00314 -0.0440628 -3.11743
HEad  -34.8317 -27.9359 14.6105
LeftShoulder1  1.92841 -2.31623 -27.0185
LeftArm  6.42226 -14.7914 -52.605
LeftForeArm  17.3871 -15.642 -7.27492
LeftHand  -0.0338071 6.0818 0.174918
RightShoulder  0.412516 -2.1787 25.6122
RightArm  20.7382 19.3938 57.509
RightForeArm  6.97022 10.5453 8.91542
RightHand  -0.309641 3.1964 -4.41723
LeftUpLeg  -1.65583 7.09498 0.191401
LeftLeg  4.9636 0.114534 -1.22175
LeftFoot  -0.368749 -0.782032 8.15047
LeftToes  1.81573e-012 2.54609e-010 -3.45981e-011
566
root  -68.9999 40.9673 -2.47523 130.122 -87.0516 -132.678
RightUpLeg  0.341945 -3.7927 -1.2029
RightLeg  -4.69274 6.1206 -2.61672
RightFoot  6.23822 -0.717568 4.91897
RightToes  5.82063e-011 0 -3.6325e-017
Spine  19.798 -1.32464 1.43878
Spine1  9.52207 -0.245417 -3.65884
HEad  -33.5908 -27.1494 14.6273
LeftShoulder1  1.75843 -1.86291 -26.6429
LeftArm  8.98541 -15.6498 -52.8515
LeftForeArm  14.6678 -17.7296 -6.33063
LeftHand  -0.0352144 3.69845 1.26728
RightShoulder  0.306795 -2.53831 26.4803
RightArm  22.7122 20.8037 58.1218
RightForeArm  8.19999 10.6586 9.23726
RightHand  -0.222693 2.06481 -3.64565
LeftUpLeg  -1.47302 7.16743 0.340639
LeftLeg  5.14302 0.315206 -1.12677
LeftFoot  -0.446573 -0.780476 8.19715
LeftToes  1.81573e-012 2.54609e-010 -3.45981e-011
567
root  -69.1291 41.0089 -2.50766 133.908 -86.8582 -136.446
RightUpLeg  0.299215 -3.99659 -1.1932
RightLeg  -4.47237 6.2588 -2.37083
RightFoot  7.08927 -0.66405 4.38746
RightToes  5.82063e-011 0 -3.6325e-017
Spine  18.4522 -1.29648 1.39491
Spine1  9.40731 -0.295937 -3.52107
HEad  -31.8672 -26.8202 13.7689
LeftShoulder1  1.78048 -1.98954 -26.274
LeftArm  11.6036 -15.4522 -53.159
LeftForeArm  12.1566 -19.8259 -5.38991
LeftHand  -0.0506888 1.86436 1.36201
RightShoulder  0.328717 -2.46644 26.3496
RightArm  23.0943 20.17 58.74
RightForeArm  8.62045 11.7257 8.75218
RightHand  -0.165902 1.89723 -2.81831
LeftUpLeg  -1.15282 6.89084 0.270222
LeftLeg  4.8757 0.770525 -0.840207
LeftFoot  -0.306914 -0.7935 8.21784
LeftToes  1.81573e-012 2.54609e-010 -3.45981e-011
568
root  -69.3163 41.034 -2.46112 141.879 -86.1856 -145.447
RightUpLeg  1.34339 -4.51065 -1.4847
RightLeg  -4.04643 7.44743 -2.05515
RightFoot  7.12656 -0.708382 4.65705
RightToes  5.82063e-011 0 -3.6325e-017
Spine  17.5325 -1.40664 1.99754
Spine1  9.83183 -0.147104 -4.33331
HEad  -30.3414 -25.3174 12.8652
LeftShoulder1  1.67948 -1.61369 -26.6871
LeftArm  13.7339 -15.5347 -52.7994
LeftForeArm  10.5552 -21.702 -4.75002
LeftHand  -0.0542677 2.40168 1.62942
RightShoulder  0.328673 -2.46484 26.2916
RightArm  24.7121 19.406 59.2082
RightForeArm  7.0803 13.245 8.28949
RightHand  -0.185311 1.81808 -3.14602
LeftUpLeg  0.426454 6.73239 0.143684
LeftLeg  4.6742 1.73666 -0.317237
LeftFoot  -0.531522 -0.746808 7.9145
LeftToes  1.81573e-012 2.54609e-010 -3.45981e-011
569
root  -69.4703 41.0626 -2.43045 153.274 -85.4887 -157.442
RightUpLeg  1.54218 -5.24037 -2.16609
RightLeg  -3.00811 9.27102 -1.73262
RightFoot  6.7762 -0.719823 4.80376
RightToes  5.82063e-011 0 -3.6325e-017
Spine  16.6256 -1.23443 1.83795
Spine1  9.66049 0.0486041 -4.59401
HEad  -28.668 -24.3145 12.0087
LeftShoulder1  1.61064 -1.40636 -26.6704
LeftArm  13.4576 -14.5665 -52.751
LeftForeArm  11.0019 -23.4013 -4.44429
LeftHand  -0.0686363 1.78461 1.93991
RightShoulder  0.28206 -2.61264 26.4613
RightArm  26.7 18.4049 59.2958
RightForeArm  5.57254 15.0074 7.63614
RightHand  -0.143923 1.81079 -2.48646
LeftUpLeg  1.6272 6.49087 -0.302496
LeftLeg  4.18197 3.17141 -0.142906
LeftFoot  -0.476074 -0.729495 7.68866
LeftToes  1.81573e-012 2.54609e-010 -3.45981e-011
570
root  -69.579 41.076 -2.38737 156.541 -84.6205 -161.575
RightUpLeg  2.22543 -5.71201 -2.53213
RightLeg  -2.49409 10.9436 -1.40889
RightFoot  6.94014 -0.718837 4.76396
RightToes  5.82063e-011 0 -3.6325e-017
Spine  16.0412 -1.22349 2.36954
Spine1  9.46565 0.294687 -5.37912
HEad  -27.1809 -23.242 10.9592
LeftShoulder1  1.61354 -1.43277 -26.5507
LeftArm  13.5584 -13.7937 -52.496
LeftForeArm  10.9277 -24.1337 -4.58405
LeftHand  -0.0723265 1.63753 1.99623
RightShoulder  0.218492 -2.81282 26.7444
RightArm  28.8173 17.4854 59.0332
RightForeArm  3.55047 16.5162 7.08106
RightHand  -0.150518 2.02691 -2.53063
LeftUpLeg  2.44752 6.84042 -0.12036
LeftLeg  4.93605 3.74603 -0.222925
LeftFoot  -0.788803 -0.698425 7.60302
LeftToes  1.81573e-012 2.54609e-010 -3.45981e-011
571
root  -69.5722 41.0653 -2.38024 157.805 -84.0784 -162.942
RightUpLeg  1.93598 -5.69663 -2.55381
RightLeg  -1.88516 11.5736 -1.25873
RightFoot  6.64554 -0.83068 5.53152
RightToes  5.82063e-011 0 -3.6325e-017
Spine  15.5258 -1.23689 2.04344
Spine1  8.89937 0.185153 -5.34114
HEad  -26.2788 -22.3845 10.5924
LeftShoulder1  1.53875 -1.19758 -26.5932
LeftArm  13.7019 -13.3202 -52.319
LeftForeArm  10.9589 -24.069 -4.57314
LeftHand  -0.0781054 1.42396 2.08016
RightShoulder  0.167682 -2.97155 27.0171
RightArm  30.5474 16.6478 58.6366
RightForeArm  2.06683 18.2666 6.30252
RightHand  -0.119892 1.70923 -2.12398
LeftUpLeg  1.60539 7.1827 0.245797
LeftLeg  6.99773 3.48076 -0.445002
LeftFoot  -1.49356 -0.608988 7.16109
LeftToes  1.81573e-012 2.54609e-010 -3.45981e-011
572
root  -69.5117 41.0518 -2.31785 160.792 -83.4851 -166.398
RightUpLeg  1.52619 -6.06101 -2.90557
RightLeg  -0.479209 12.9099 -0.965385
RightFoot  6.65713 -0.800869 5.3425
RightToes  5.82063e-011 0 -3.6325e-017
Spine  15.7339 -1.15133 1.15913
Spine1  8.22424 -0.0381311 -4.5658
HEad  -25.6708 -21.1491 10.3229
LeftShoulder1  1.53133 -1.20446 -26.3823
LeftArm  13.6282 -12.5479 -52.4001
LeftForeArm  11.2715 -23.7507 -4.49288
LeftHand  -0.0491934 2.57249 1.50232
RightShoulder  0.167099 -2.9683 26.7536
RightArm  31.7058 15.918 58.4679
RightForeArm  1.56843 19.2626 5.88957
RightHand  -0.102236 2.21912 -1.74388
LeftUpLeg  1.03553 7.10185 0.167146
LeftLeg  9.09881 2.77026 -0.32959
LeftFoot  -2.00286 -0.482976 6.0535
LeftToes  1.81573e-012 2.54609e-010 -3.45981e-011
